%TF.GenerationSoftware,KiCad,Pcbnew,8.0.7*%
%TF.CreationDate,2025-01-31T12:34:02+00:00*%
%TF.ProjectId,SparkFun_GNSS_pHAT_panelized,53706172-6b46-4756-9e5f-474e53535f70,v10*%
%TF.SameCoordinates,Original*%
%TF.FileFunction,Paste,Top*%
%TF.FilePolarity,Positive*%
%FSLAX46Y46*%
G04 Gerber Fmt 4.6, Leading zero omitted, Abs format (unit mm)*
G04 Created by KiCad (PCBNEW 8.0.7) date 2025-01-31 12:34:02*
%MOMM*%
%LPD*%
G01*
G04 APERTURE LIST*
G04 Aperture macros list*
%AMRoundRect*
0 Rectangle with rounded corners*
0 $1 Rounding radius*
0 $2 $3 $4 $5 $6 $7 $8 $9 X,Y pos of 4 corners*
0 Add a 4 corners polygon primitive as box body*
4,1,4,$2,$3,$4,$5,$6,$7,$8,$9,$2,$3,0*
0 Add four circle primitives for the rounded corners*
1,1,$1+$1,$2,$3*
1,1,$1+$1,$4,$5*
1,1,$1+$1,$6,$7*
1,1,$1+$1,$8,$9*
0 Add four rect primitives between the rounded corners*
20,1,$1+$1,$2,$3,$4,$5,0*
20,1,$1+$1,$4,$5,$6,$7,0*
20,1,$1+$1,$6,$7,$8,$9,0*
20,1,$1+$1,$8,$9,$2,$3,0*%
G04 Aperture macros list end*
%ADD10RoundRect,0.200000X0.200000X0.275000X-0.200000X0.275000X-0.200000X-0.275000X0.200000X-0.275000X0*%
%ADD11RoundRect,0.225000X-0.225000X-0.250000X0.225000X-0.250000X0.225000X0.250000X-0.225000X0.250000X0*%
%ADD12RoundRect,0.218750X0.218750X0.256250X-0.218750X0.256250X-0.218750X-0.256250X0.218750X-0.256250X0*%
%ADD13R,0.900000X2.750000*%
%ADD14RoundRect,0.225000X0.250000X-0.225000X0.250000X0.225000X-0.250000X0.225000X-0.250000X-0.225000X0*%
%ADD15RoundRect,0.200000X0.275000X-0.200000X0.275000X0.200000X-0.275000X0.200000X-0.275000X-0.200000X0*%
%ADD16RoundRect,0.200000X-0.200000X-0.275000X0.200000X-0.275000X0.200000X0.275000X-0.200000X0.275000X0*%
%ADD17RoundRect,0.200000X-0.275000X0.200000X-0.275000X-0.200000X0.275000X-0.200000X0.275000X0.200000X0*%
%ADD18R,0.500000X1.000000*%
%ADD19R,0.950000X1.200000*%
%ADD20R,0.550000X1.200000*%
%ADD21R,1.020000X1.870000*%
%ADD22R,1.550000X0.600000*%
%ADD23R,2.000000X1.200000*%
%ADD24RoundRect,0.225000X-0.250000X0.225000X-0.250000X-0.225000X0.250000X-0.225000X0.250000X0.225000X0*%
%ADD25R,1.200000X0.550000*%
%ADD26RoundRect,0.225000X0.225000X0.250000X-0.225000X0.250000X-0.225000X-0.250000X0.225000X-0.250000X0*%
%ADD27R,1.050000X1.000000*%
%ADD28R,2.200000X0.850000*%
%ADD29R,0.650000X0.300000*%
%ADD30R,1.000000X0.300000*%
%ADD31R,1.000000X0.600000*%
%ADD32O,1.600000X1.000000*%
%ADD33O,2.100000X1.000000*%
%ADD34R,1.200000X0.600000*%
%ADD35R,0.300000X0.700000*%
%ADD36R,0.400000X0.900000*%
G04 APERTURE END LIST*
%TO.C,U2*%
G36*
X25600000Y32687500D02*
G01*
X26400000Y32687500D01*
X26400000Y31312500D01*
X25600000Y31312500D01*
X25600000Y32687500D01*
G37*
G36*
X93640000Y89937500D02*
G01*
X94440000Y89937500D01*
X94440000Y88562500D01*
X93640000Y88562500D01*
X93640000Y89937500D01*
G37*
G36*
X25600000Y89937500D02*
G01*
X26400000Y89937500D01*
X26400000Y88562500D01*
X25600000Y88562500D01*
X25600000Y89937500D01*
G37*
G36*
X93640000Y32687500D02*
G01*
X94440000Y32687500D01*
X94440000Y31312500D01*
X93640000Y31312500D01*
X93640000Y32687500D01*
G37*
%TD*%
D10*
%TO.C,R5*%
X51625000Y32004000D03*
X49975000Y32004000D03*
%TD*%
%TO.C,R5*%
X119665000Y89254000D03*
X118015000Y89254000D03*
%TD*%
%TO.C,R5*%
X51625000Y89254000D03*
X49975000Y89254000D03*
%TD*%
%TO.C,R5*%
X119665000Y32004000D03*
X118015000Y32004000D03*
%TD*%
D11*
%TO.C,C15*%
X37325000Y35814000D03*
X38875000Y35814000D03*
%TD*%
%TO.C,C15*%
X105365000Y35814000D03*
X106915000Y35814000D03*
%TD*%
%TO.C,C15*%
X37325000Y93064000D03*
X38875000Y93064000D03*
%TD*%
%TO.C,C15*%
X105365000Y93064000D03*
X106915000Y93064000D03*
%TD*%
%TO.C,C12*%
X37325000Y10160000D03*
X38875000Y10160000D03*
%TD*%
%TO.C,C12*%
X37325000Y67410000D03*
X38875000Y67410000D03*
%TD*%
%TO.C,C12*%
X105365000Y10160000D03*
X106915000Y10160000D03*
%TD*%
%TO.C,C12*%
X105365000Y67410000D03*
X106915000Y67410000D03*
%TD*%
D12*
%TO.C,D4*%
X59842500Y22860000D03*
X58267500Y22860000D03*
%TD*%
%TO.C,D4*%
X127882500Y22860000D03*
X126307500Y22860000D03*
%TD*%
%TO.C,D4*%
X59842500Y80110000D03*
X58267500Y80110000D03*
%TD*%
%TO.C,D4*%
X127882500Y80110000D03*
X126307500Y80110000D03*
%TD*%
D13*
%TO.C,J4*%
X17000000Y38875000D03*
X17000000Y43125000D03*
X19000000Y38875000D03*
X19000000Y43125000D03*
X21000000Y38875000D03*
X21000000Y43125000D03*
X23000000Y38875000D03*
X23000000Y43125000D03*
X25000000Y38875000D03*
X25000000Y43125000D03*
X27000000Y38875000D03*
X27000000Y43125000D03*
X29000000Y38875000D03*
X29000000Y43125000D03*
X31000000Y38875000D03*
X31000000Y43125000D03*
X33000000Y38875000D03*
X33000000Y43125000D03*
X35000000Y38875000D03*
X35000000Y43125000D03*
%TD*%
%TO.C,J4*%
X17000000Y96125000D03*
X17000000Y100375000D03*
X19000000Y96125000D03*
X19000000Y100375000D03*
X21000000Y96125000D03*
X21000000Y100375000D03*
X23000000Y96125000D03*
X23000000Y100375000D03*
X25000000Y96125000D03*
X25000000Y100375000D03*
X27000000Y96125000D03*
X27000000Y100375000D03*
X29000000Y96125000D03*
X29000000Y100375000D03*
X31000000Y96125000D03*
X31000000Y100375000D03*
X33000000Y96125000D03*
X33000000Y100375000D03*
X35000000Y96125000D03*
X35000000Y100375000D03*
%TD*%
%TO.C,J4*%
X85040000Y96125000D03*
X85040000Y100375000D03*
X87040000Y96125000D03*
X87040000Y100375000D03*
X89040000Y96125000D03*
X89040000Y100375000D03*
X91040000Y96125000D03*
X91040000Y100375000D03*
X93040000Y96125000D03*
X93040000Y100375000D03*
X95040000Y96125000D03*
X95040000Y100375000D03*
X97040000Y96125000D03*
X97040000Y100375000D03*
X99040000Y96125000D03*
X99040000Y100375000D03*
X101040000Y96125000D03*
X101040000Y100375000D03*
X103040000Y96125000D03*
X103040000Y100375000D03*
%TD*%
%TO.C,J4*%
X85040000Y38875000D03*
X85040000Y43125000D03*
X87040000Y38875000D03*
X87040000Y43125000D03*
X89040000Y38875000D03*
X89040000Y43125000D03*
X91040000Y38875000D03*
X91040000Y43125000D03*
X93040000Y38875000D03*
X93040000Y43125000D03*
X95040000Y38875000D03*
X95040000Y43125000D03*
X97040000Y38875000D03*
X97040000Y43125000D03*
X99040000Y38875000D03*
X99040000Y43125000D03*
X101040000Y38875000D03*
X101040000Y43125000D03*
X103040000Y38875000D03*
X103040000Y43125000D03*
%TD*%
D14*
%TO.C,C1*%
X49530000Y38595000D03*
X49530000Y40145000D03*
%TD*%
%TO.C,C1*%
X49530000Y95845000D03*
X49530000Y97395000D03*
%TD*%
%TO.C,C1*%
X117570000Y95845000D03*
X117570000Y97395000D03*
%TD*%
%TO.C,C1*%
X117570000Y38595000D03*
X117570000Y40145000D03*
%TD*%
D15*
%TO.C,R8*%
X47625000Y15939000D03*
X47625000Y17589000D03*
%TD*%
%TO.C,R8*%
X115665000Y15939000D03*
X115665000Y17589000D03*
%TD*%
%TO.C,R8*%
X47625000Y73189000D03*
X47625000Y74839000D03*
%TD*%
%TO.C,R8*%
X115665000Y73189000D03*
X115665000Y74839000D03*
%TD*%
D11*
%TO.C,C10*%
X37325000Y7093000D03*
X38875000Y7093000D03*
%TD*%
%TO.C,C10*%
X37325000Y64343000D03*
X38875000Y64343000D03*
%TD*%
%TO.C,C10*%
X105365000Y7093000D03*
X106915000Y7093000D03*
%TD*%
%TO.C,C10*%
X105365000Y64343000D03*
X106915000Y64343000D03*
%TD*%
D14*
%TO.C,C3*%
X22860000Y31229000D03*
X22860000Y32779000D03*
%TD*%
%TO.C,C3*%
X90900000Y88479000D03*
X90900000Y90029000D03*
%TD*%
%TO.C,C3*%
X22860000Y88479000D03*
X22860000Y90029000D03*
%TD*%
%TO.C,C3*%
X90900000Y31229000D03*
X90900000Y32779000D03*
%TD*%
D13*
%TO.C,J2*%
X17000000Y2875000D03*
X17000000Y7125000D03*
X19000000Y2875000D03*
X19000000Y7125000D03*
X21000000Y2875000D03*
X21000000Y7125000D03*
X23000000Y2875000D03*
X23000000Y7125000D03*
X25000000Y2875000D03*
X25000000Y7125000D03*
X27000000Y2875000D03*
X27000000Y7125000D03*
X29000000Y2875000D03*
X29000000Y7125000D03*
X31000000Y2875000D03*
X31000000Y7125000D03*
X33000000Y2875000D03*
X33000000Y7125000D03*
X35000000Y2875000D03*
X35000000Y7125000D03*
%TD*%
%TO.C,J2*%
X17000000Y60125000D03*
X17000000Y64375000D03*
X19000000Y60125000D03*
X19000000Y64375000D03*
X21000000Y60125000D03*
X21000000Y64375000D03*
X23000000Y60125000D03*
X23000000Y64375000D03*
X25000000Y60125000D03*
X25000000Y64375000D03*
X27000000Y60125000D03*
X27000000Y64375000D03*
X29000000Y60125000D03*
X29000000Y64375000D03*
X31000000Y60125000D03*
X31000000Y64375000D03*
X33000000Y60125000D03*
X33000000Y64375000D03*
X35000000Y60125000D03*
X35000000Y64375000D03*
%TD*%
%TO.C,J2*%
X85040000Y2875000D03*
X85040000Y7125000D03*
X87040000Y2875000D03*
X87040000Y7125000D03*
X89040000Y2875000D03*
X89040000Y7125000D03*
X91040000Y2875000D03*
X91040000Y7125000D03*
X93040000Y2875000D03*
X93040000Y7125000D03*
X95040000Y2875000D03*
X95040000Y7125000D03*
X97040000Y2875000D03*
X97040000Y7125000D03*
X99040000Y2875000D03*
X99040000Y7125000D03*
X101040000Y2875000D03*
X101040000Y7125000D03*
X103040000Y2875000D03*
X103040000Y7125000D03*
%TD*%
%TO.C,J2*%
X85040000Y60125000D03*
X85040000Y64375000D03*
X87040000Y60125000D03*
X87040000Y64375000D03*
X89040000Y60125000D03*
X89040000Y64375000D03*
X91040000Y60125000D03*
X91040000Y64375000D03*
X93040000Y60125000D03*
X93040000Y64375000D03*
X95040000Y60125000D03*
X95040000Y64375000D03*
X97040000Y60125000D03*
X97040000Y64375000D03*
X99040000Y60125000D03*
X99040000Y64375000D03*
X101040000Y60125000D03*
X101040000Y64375000D03*
X103040000Y60125000D03*
X103040000Y64375000D03*
%TD*%
D16*
%TO.C,R14*%
X55182000Y28956000D03*
X56832000Y28956000D03*
%TD*%
%TO.C,R14*%
X123222000Y86206000D03*
X124872000Y86206000D03*
%TD*%
%TO.C,R14*%
X55182000Y86206000D03*
X56832000Y86206000D03*
%TD*%
%TO.C,R14*%
X123222000Y28956000D03*
X124872000Y28956000D03*
%TD*%
D10*
%TO.C,R10*%
X11366000Y38862000D03*
X9716000Y38862000D03*
%TD*%
%TO.C,R10*%
X79406000Y38862000D03*
X77756000Y38862000D03*
%TD*%
%TO.C,R10*%
X79406000Y96112000D03*
X77756000Y96112000D03*
%TD*%
%TO.C,R10*%
X11366000Y96112000D03*
X9716000Y96112000D03*
%TD*%
%TO.C,R9*%
X11366000Y46101000D03*
X9716000Y46101000D03*
%TD*%
%TO.C,R9*%
X11366000Y103351000D03*
X9716000Y103351000D03*
%TD*%
%TO.C,R9*%
X79406000Y46101000D03*
X77756000Y46101000D03*
%TD*%
%TO.C,R9*%
X79406000Y103351000D03*
X77756000Y103351000D03*
%TD*%
D11*
%TO.C,C13*%
X37325000Y38862000D03*
X38875000Y38862000D03*
%TD*%
%TO.C,C13*%
X105365000Y38862000D03*
X106915000Y38862000D03*
%TD*%
%TO.C,C13*%
X105365000Y96112000D03*
X106915000Y96112000D03*
%TD*%
%TO.C,C13*%
X37325000Y96112000D03*
X38875000Y96112000D03*
%TD*%
D12*
%TO.C,D5*%
X59842500Y26924000D03*
X58267500Y26924000D03*
%TD*%
%TO.C,D5*%
X127882500Y84174000D03*
X126307500Y84174000D03*
%TD*%
%TO.C,D5*%
X127882500Y26924000D03*
X126307500Y26924000D03*
%TD*%
%TO.C,D5*%
X59842500Y84174000D03*
X58267500Y84174000D03*
%TD*%
D10*
%TO.C,R11*%
X56832000Y24892000D03*
X55182000Y24892000D03*
%TD*%
%TO.C,R11*%
X124872000Y82142000D03*
X123222000Y82142000D03*
%TD*%
%TO.C,R11*%
X56832000Y82142000D03*
X55182000Y82142000D03*
%TD*%
%TO.C,R11*%
X124872000Y24892000D03*
X123222000Y24892000D03*
%TD*%
D17*
%TO.C,R3*%
X48006000Y40195000D03*
X48006000Y38545000D03*
%TD*%
%TO.C,R3*%
X48006000Y97445000D03*
X48006000Y95795000D03*
%TD*%
%TO.C,R3*%
X116046000Y40195000D03*
X116046000Y38545000D03*
%TD*%
%TO.C,R3*%
X116046000Y97445000D03*
X116046000Y95795000D03*
%TD*%
D18*
%TO.C,J5*%
X55700000Y7025000D03*
X54600000Y7025000D03*
X53500000Y7025000D03*
X52750000Y7025000D03*
X51300000Y7025000D03*
X50200000Y7025000D03*
X49100000Y7025000D03*
X48000000Y7025000D03*
X52050000Y7025000D03*
D19*
X46750000Y13225000D03*
X46750000Y8775000D03*
X56950000Y13225000D03*
X56950000Y8775000D03*
%TD*%
D18*
%TO.C,J5*%
X55700000Y64275000D03*
X54600000Y64275000D03*
X53500000Y64275000D03*
X52750000Y64275000D03*
X51300000Y64275000D03*
X50200000Y64275000D03*
X49100000Y64275000D03*
X48000000Y64275000D03*
X52050000Y64275000D03*
D19*
X46750000Y70475000D03*
X46750000Y66025000D03*
X56950000Y70475000D03*
X56950000Y66025000D03*
%TD*%
D18*
%TO.C,J5*%
X123740000Y64275000D03*
X122640000Y64275000D03*
X121540000Y64275000D03*
X120790000Y64275000D03*
X119340000Y64275000D03*
X118240000Y64275000D03*
X117140000Y64275000D03*
X116040000Y64275000D03*
X120090000Y64275000D03*
D19*
X114790000Y70475000D03*
X114790000Y66025000D03*
X124990000Y70475000D03*
X124990000Y66025000D03*
%TD*%
D18*
%TO.C,J5*%
X123740000Y7025000D03*
X122640000Y7025000D03*
X121540000Y7025000D03*
X120790000Y7025000D03*
X119340000Y7025000D03*
X118240000Y7025000D03*
X117140000Y7025000D03*
X116040000Y7025000D03*
X120090000Y7025000D03*
D19*
X114790000Y13225000D03*
X114790000Y8775000D03*
X124990000Y13225000D03*
X124990000Y8775000D03*
%TD*%
D14*
%TO.C,C8*%
X49657000Y15989000D03*
X49657000Y17539000D03*
%TD*%
%TO.C,C8*%
X49657000Y73239000D03*
X49657000Y74789000D03*
%TD*%
%TO.C,C8*%
X117697000Y15989000D03*
X117697000Y17539000D03*
%TD*%
%TO.C,C8*%
X117697000Y73239000D03*
X117697000Y74789000D03*
%TD*%
%TO.C,C7*%
X52705000Y15989000D03*
X52705000Y17539000D03*
%TD*%
%TO.C,C7*%
X120745000Y73239000D03*
X120745000Y74789000D03*
%TD*%
%TO.C,C7*%
X120745000Y15989000D03*
X120745000Y17539000D03*
%TD*%
%TO.C,C7*%
X52705000Y73239000D03*
X52705000Y74789000D03*
%TD*%
D20*
%TO.C,D1*%
X9718000Y31719900D03*
X10668000Y31719900D03*
X11618000Y31719900D03*
X11618000Y34320100D03*
X10668000Y34320000D03*
X9718000Y34320100D03*
%TD*%
%TO.C,D1*%
X9718000Y88969900D03*
X10668000Y88969900D03*
X11618000Y88969900D03*
X11618000Y91570100D03*
X10668000Y91570000D03*
X9718000Y91570100D03*
%TD*%
%TO.C,D1*%
X77758000Y31719900D03*
X78708000Y31719900D03*
X79658000Y31719900D03*
X79658000Y34320100D03*
X78708000Y34320000D03*
X77758000Y34320100D03*
%TD*%
%TO.C,D1*%
X77758000Y88969900D03*
X78708000Y88969900D03*
X79658000Y88969900D03*
X79658000Y91570100D03*
X78708000Y91570000D03*
X77758000Y91570100D03*
%TD*%
D21*
%TO.C,J1*%
X8370000Y49635000D03*
X8370000Y55365000D03*
X10910000Y49635000D03*
X10910000Y55365000D03*
X13450000Y49635000D03*
X13450000Y55365000D03*
X15990000Y49635000D03*
X15990000Y55365000D03*
X18530000Y49635000D03*
X18530000Y55365000D03*
X21070000Y49635000D03*
X21070000Y55365000D03*
X23610000Y49635000D03*
X23610000Y55365000D03*
X26150000Y49635000D03*
X26150000Y55365000D03*
X28690000Y49635000D03*
X28690000Y55365000D03*
X31230000Y49635000D03*
X31230000Y55365000D03*
X33770000Y49635000D03*
X33770000Y55365000D03*
X36310000Y49635000D03*
X36310000Y55365000D03*
X38850000Y49635000D03*
X38850000Y55365000D03*
X41390000Y49635000D03*
X41390000Y55365000D03*
X43930000Y49635000D03*
X43930000Y55365000D03*
X46470000Y49635000D03*
X46470000Y55365000D03*
X49010000Y49635000D03*
X49010000Y55365000D03*
X51550000Y49635000D03*
X51550000Y55365000D03*
X54090000Y49635000D03*
X54090000Y55365000D03*
X56630000Y49635000D03*
X56630000Y55365000D03*
%TD*%
%TO.C,J1*%
X76410000Y49635000D03*
X76410000Y55365000D03*
X78950000Y49635000D03*
X78950000Y55365000D03*
X81490000Y49635000D03*
X81490000Y55365000D03*
X84030000Y49635000D03*
X84030000Y55365000D03*
X86570000Y49635000D03*
X86570000Y55365000D03*
X89110000Y49635000D03*
X89110000Y55365000D03*
X91650000Y49635000D03*
X91650000Y55365000D03*
X94190000Y49635000D03*
X94190000Y55365000D03*
X96730000Y49635000D03*
X96730000Y55365000D03*
X99270000Y49635000D03*
X99270000Y55365000D03*
X101810000Y49635000D03*
X101810000Y55365000D03*
X104350000Y49635000D03*
X104350000Y55365000D03*
X106890000Y49635000D03*
X106890000Y55365000D03*
X109430000Y49635000D03*
X109430000Y55365000D03*
X111970000Y49635000D03*
X111970000Y55365000D03*
X114510000Y49635000D03*
X114510000Y55365000D03*
X117050000Y49635000D03*
X117050000Y55365000D03*
X119590000Y49635000D03*
X119590000Y55365000D03*
X122130000Y49635000D03*
X122130000Y55365000D03*
X124670000Y49635000D03*
X124670000Y55365000D03*
%TD*%
%TO.C,J1*%
X8370000Y106885000D03*
X8370000Y112615000D03*
X10910000Y106885000D03*
X10910000Y112615000D03*
X13450000Y106885000D03*
X13450000Y112615000D03*
X15990000Y106885000D03*
X15990000Y112615000D03*
X18530000Y106885000D03*
X18530000Y112615000D03*
X21070000Y106885000D03*
X21070000Y112615000D03*
X23610000Y106885000D03*
X23610000Y112615000D03*
X26150000Y106885000D03*
X26150000Y112615000D03*
X28690000Y106885000D03*
X28690000Y112615000D03*
X31230000Y106885000D03*
X31230000Y112615000D03*
X33770000Y106885000D03*
X33770000Y112615000D03*
X36310000Y106885000D03*
X36310000Y112615000D03*
X38850000Y106885000D03*
X38850000Y112615000D03*
X41390000Y106885000D03*
X41390000Y112615000D03*
X43930000Y106885000D03*
X43930000Y112615000D03*
X46470000Y106885000D03*
X46470000Y112615000D03*
X49010000Y106885000D03*
X49010000Y112615000D03*
X51550000Y106885000D03*
X51550000Y112615000D03*
X54090000Y106885000D03*
X54090000Y112615000D03*
X56630000Y106885000D03*
X56630000Y112615000D03*
%TD*%
%TO.C,J1*%
X76410000Y106885000D03*
X76410000Y112615000D03*
X78950000Y106885000D03*
X78950000Y112615000D03*
X81490000Y106885000D03*
X81490000Y112615000D03*
X84030000Y106885000D03*
X84030000Y112615000D03*
X86570000Y106885000D03*
X86570000Y112615000D03*
X89110000Y106885000D03*
X89110000Y112615000D03*
X91650000Y106885000D03*
X91650000Y112615000D03*
X94190000Y106885000D03*
X94190000Y112615000D03*
X96730000Y106885000D03*
X96730000Y112615000D03*
X99270000Y106885000D03*
X99270000Y112615000D03*
X101810000Y106885000D03*
X101810000Y112615000D03*
X104350000Y106885000D03*
X104350000Y112615000D03*
X106890000Y106885000D03*
X106890000Y112615000D03*
X109430000Y106885000D03*
X109430000Y112615000D03*
X111970000Y106885000D03*
X111970000Y112615000D03*
X114510000Y106885000D03*
X114510000Y112615000D03*
X117050000Y106885000D03*
X117050000Y112615000D03*
X119590000Y106885000D03*
X119590000Y112615000D03*
X122130000Y106885000D03*
X122130000Y112615000D03*
X124670000Y106885000D03*
X124670000Y112615000D03*
%TD*%
D10*
%TO.C,R4*%
X51625000Y33528000D03*
X49975000Y33528000D03*
%TD*%
%TO.C,R4*%
X119665000Y33528000D03*
X118015000Y33528000D03*
%TD*%
%TO.C,R4*%
X51625000Y90778000D03*
X49975000Y90778000D03*
%TD*%
%TO.C,R4*%
X119665000Y90778000D03*
X118015000Y90778000D03*
%TD*%
D22*
%TO.C,J8*%
X54369000Y35282000D03*
X54369000Y34282000D03*
X54369000Y33282000D03*
X54369000Y32282000D03*
D23*
X56794000Y36582000D03*
X56794000Y30982000D03*
%TD*%
D22*
%TO.C,J8*%
X54369000Y92532000D03*
X54369000Y91532000D03*
X54369000Y90532000D03*
X54369000Y89532000D03*
D23*
X56794000Y93832000D03*
X56794000Y88232000D03*
%TD*%
D22*
%TO.C,J8*%
X122409000Y35282000D03*
X122409000Y34282000D03*
X122409000Y33282000D03*
X122409000Y32282000D03*
D23*
X124834000Y36582000D03*
X124834000Y30982000D03*
%TD*%
D22*
%TO.C,J8*%
X122409000Y92532000D03*
X122409000Y91532000D03*
X122409000Y90532000D03*
X122409000Y89532000D03*
D23*
X124834000Y93832000D03*
X124834000Y88232000D03*
%TD*%
D10*
%TO.C,R13*%
X56832000Y26924000D03*
X55182000Y26924000D03*
%TD*%
%TO.C,R13*%
X56832000Y84174000D03*
X55182000Y84174000D03*
%TD*%
%TO.C,R13*%
X124872000Y84174000D03*
X123222000Y84174000D03*
%TD*%
%TO.C,R13*%
X124872000Y26924000D03*
X123222000Y26924000D03*
%TD*%
D15*
%TO.C,R2*%
X51054000Y42863000D03*
X51054000Y44513000D03*
%TD*%
%TO.C,R2*%
X51054000Y100113000D03*
X51054000Y101763000D03*
%TD*%
%TO.C,R2*%
X119094000Y100113000D03*
X119094000Y101763000D03*
%TD*%
%TO.C,R2*%
X119094000Y42863000D03*
X119094000Y44513000D03*
%TD*%
%TO.C,R1*%
X49530000Y42863000D03*
X49530000Y44513000D03*
%TD*%
%TO.C,R1*%
X117570000Y42863000D03*
X117570000Y44513000D03*
%TD*%
%TO.C,R1*%
X49530000Y100113000D03*
X49530000Y101763000D03*
%TD*%
%TO.C,R1*%
X117570000Y100113000D03*
X117570000Y101763000D03*
%TD*%
%TO.C,R6*%
X56134000Y15939000D03*
X56134000Y17589000D03*
%TD*%
%TO.C,R6*%
X124174000Y73189000D03*
X124174000Y74839000D03*
%TD*%
%TO.C,R6*%
X56134000Y73189000D03*
X56134000Y74839000D03*
%TD*%
%TO.C,R6*%
X124174000Y15939000D03*
X124174000Y17589000D03*
%TD*%
D12*
%TO.C,D6*%
X59842500Y28956000D03*
X58267500Y28956000D03*
%TD*%
%TO.C,D6*%
X59842500Y86206000D03*
X58267500Y86206000D03*
%TD*%
%TO.C,D6*%
X127882500Y86206000D03*
X126307500Y86206000D03*
%TD*%
%TO.C,D6*%
X127882500Y28956000D03*
X126307500Y28956000D03*
%TD*%
D24*
%TO.C,C9*%
X51181000Y17539000D03*
X51181000Y15989000D03*
%TD*%
%TO.C,C9*%
X51181000Y74789000D03*
X51181000Y73239000D03*
%TD*%
%TO.C,C9*%
X119221000Y74789000D03*
X119221000Y73239000D03*
%TD*%
%TO.C,C9*%
X119221000Y17539000D03*
X119221000Y15989000D03*
%TD*%
%TO.C,C5*%
X22860000Y18428000D03*
X22860000Y16878000D03*
%TD*%
%TO.C,C5*%
X22860000Y75678000D03*
X22860000Y74128000D03*
%TD*%
%TO.C,C5*%
X90900000Y75678000D03*
X90900000Y74128000D03*
%TD*%
%TO.C,C5*%
X90900000Y18428000D03*
X90900000Y16878000D03*
%TD*%
D25*
%TO.C,U3*%
X27335100Y16703000D03*
X27335100Y17653000D03*
X27335100Y18603000D03*
X24734900Y18603000D03*
X24734900Y16703000D03*
%TD*%
%TO.C,U3*%
X95375100Y16703000D03*
X95375100Y17653000D03*
X95375100Y18603000D03*
X92774900Y18603000D03*
X92774900Y16703000D03*
%TD*%
%TO.C,U3*%
X27335100Y73953000D03*
X27335100Y74903000D03*
X27335100Y75853000D03*
X24734900Y75853000D03*
X24734900Y73953000D03*
%TD*%
%TO.C,U3*%
X95375100Y73953000D03*
X95375100Y74903000D03*
X95375100Y75853000D03*
X92774900Y75853000D03*
X92774900Y73953000D03*
%TD*%
D26*
%TO.C,C11*%
X38875000Y8636000D03*
X37325000Y8636000D03*
%TD*%
%TO.C,C11*%
X38875000Y65886000D03*
X37325000Y65886000D03*
%TD*%
%TO.C,C11*%
X106915000Y65886000D03*
X105365000Y65886000D03*
%TD*%
%TO.C,C11*%
X106915000Y8636000D03*
X105365000Y8636000D03*
%TD*%
D27*
%TO.C,J3*%
X5587000Y12000000D03*
D28*
X7112000Y10625000D03*
X7112000Y13375000D03*
%TD*%
D27*
%TO.C,J3*%
X5587000Y69250000D03*
D28*
X7112000Y67875000D03*
X7112000Y70625000D03*
%TD*%
D27*
%TO.C,J3*%
X73627000Y12000000D03*
D28*
X75152000Y10625000D03*
X75152000Y13375000D03*
%TD*%
D27*
%TO.C,J3*%
X73627000Y69250000D03*
D28*
X75152000Y67875000D03*
X75152000Y70625000D03*
%TD*%
D14*
%TO.C,C4*%
X29210000Y16878000D03*
X29210000Y18428000D03*
%TD*%
%TO.C,C4*%
X97250000Y74128000D03*
X97250000Y75678000D03*
%TD*%
%TO.C,C4*%
X29210000Y74128000D03*
X29210000Y75678000D03*
%TD*%
%TO.C,C4*%
X97250000Y16878000D03*
X97250000Y18428000D03*
%TD*%
D29*
%TO.C,U2*%
X24625000Y32975000D03*
X24625000Y32325000D03*
X24625000Y31675000D03*
X24625000Y31025000D03*
X27375000Y31025000D03*
X27375000Y31675000D03*
X27375000Y32325000D03*
X27375000Y32975000D03*
%TD*%
%TO.C,U2*%
X92665000Y90225000D03*
X92665000Y89575000D03*
X92665000Y88925000D03*
X92665000Y88275000D03*
X95415000Y88275000D03*
X95415000Y88925000D03*
X95415000Y89575000D03*
X95415000Y90225000D03*
%TD*%
%TO.C,U2*%
X24625000Y90225000D03*
X24625000Y89575000D03*
X24625000Y88925000D03*
X24625000Y88275000D03*
X27375000Y88275000D03*
X27375000Y88925000D03*
X27375000Y89575000D03*
X27375000Y90225000D03*
%TD*%
%TO.C,U2*%
X92665000Y32975000D03*
X92665000Y32325000D03*
X92665000Y31675000D03*
X92665000Y31025000D03*
X95415000Y31025000D03*
X95415000Y31675000D03*
X95415000Y32325000D03*
X95415000Y32975000D03*
%TD*%
D14*
%TO.C,C6*%
X51054000Y38595000D03*
X51054000Y40145000D03*
%TD*%
%TO.C,C6*%
X119094000Y95845000D03*
X119094000Y97395000D03*
%TD*%
%TO.C,C6*%
X51054000Y95845000D03*
X51054000Y97395000D03*
%TD*%
%TO.C,C6*%
X119094000Y38595000D03*
X119094000Y40145000D03*
%TD*%
%TO.C,C2*%
X29210000Y31229000D03*
X29210000Y32779000D03*
%TD*%
%TO.C,C2*%
X97250000Y31229000D03*
X97250000Y32779000D03*
%TD*%
%TO.C,C2*%
X97250000Y88479000D03*
X97250000Y90029000D03*
%TD*%
%TO.C,C2*%
X29210000Y88479000D03*
X29210000Y90029000D03*
%TD*%
D15*
%TO.C,R7*%
X54229000Y15939000D03*
X54229000Y17589000D03*
%TD*%
%TO.C,R7*%
X54229000Y73189000D03*
X54229000Y74839000D03*
%TD*%
%TO.C,R7*%
X122269000Y73189000D03*
X122269000Y74839000D03*
%TD*%
%TO.C,R7*%
X122269000Y15939000D03*
X122269000Y17589000D03*
%TD*%
D10*
%TO.C,R12*%
X56832000Y22860000D03*
X55182000Y22860000D03*
%TD*%
%TO.C,R12*%
X56832000Y80110000D03*
X55182000Y80110000D03*
%TD*%
%TO.C,R12*%
X124872000Y80110000D03*
X123222000Y80110000D03*
%TD*%
%TO.C,R12*%
X124872000Y22860000D03*
X123222000Y22860000D03*
%TD*%
D26*
%TO.C,C14*%
X38875000Y37338000D03*
X37325000Y37338000D03*
%TD*%
%TO.C,C14*%
X106915000Y37338000D03*
X105365000Y37338000D03*
%TD*%
%TO.C,C14*%
X38875000Y94588000D03*
X37325000Y94588000D03*
%TD*%
%TO.C,C14*%
X106915000Y94588000D03*
X105365000Y94588000D03*
%TD*%
D30*
%TO.C,J6*%
X6260000Y45250000D03*
X6260000Y44250000D03*
X6260000Y43750000D03*
X6260000Y42750000D03*
X6260000Y42250000D03*
X6260000Y43250000D03*
X6260000Y44750000D03*
X6260000Y45750000D03*
D31*
X6260000Y47225000D03*
X6260000Y40775000D03*
D32*
X1505000Y48318000D03*
D33*
X5685000Y48318000D03*
X5685000Y39682000D03*
D32*
X1505000Y39682000D03*
D31*
X6260000Y46450000D03*
X6260000Y41550000D03*
%TD*%
D30*
%TO.C,J6*%
X74300000Y45250000D03*
X74300000Y44250000D03*
X74300000Y43750000D03*
X74300000Y42750000D03*
X74300000Y42250000D03*
X74300000Y43250000D03*
X74300000Y44750000D03*
X74300000Y45750000D03*
D31*
X74300000Y47225000D03*
X74300000Y40775000D03*
D32*
X69545000Y48318000D03*
D33*
X73725000Y48318000D03*
X73725000Y39682000D03*
D32*
X69545000Y39682000D03*
D31*
X74300000Y46450000D03*
X74300000Y41550000D03*
%TD*%
D30*
%TO.C,J6*%
X6260000Y102500000D03*
X6260000Y101500000D03*
X6260000Y101000000D03*
X6260000Y100000000D03*
X6260000Y99500000D03*
X6260000Y100500000D03*
X6260000Y102000000D03*
X6260000Y103000000D03*
D31*
X6260000Y104475000D03*
X6260000Y98025000D03*
D32*
X1505000Y105568000D03*
D33*
X5685000Y105568000D03*
X5685000Y96932000D03*
D32*
X1505000Y96932000D03*
D31*
X6260000Y103700000D03*
X6260000Y98800000D03*
%TD*%
D30*
%TO.C,J6*%
X74300000Y102500000D03*
X74300000Y101500000D03*
X74300000Y101000000D03*
X74300000Y100000000D03*
X74300000Y99500000D03*
X74300000Y100500000D03*
X74300000Y102000000D03*
X74300000Y103000000D03*
D31*
X74300000Y104475000D03*
X74300000Y98025000D03*
D32*
X69545000Y105568000D03*
D33*
X73725000Y105568000D03*
X73725000Y96932000D03*
D32*
X69545000Y96932000D03*
D31*
X74300000Y103700000D03*
X74300000Y98800000D03*
%TD*%
D34*
%TO.C,U1*%
X58680000Y38735000D03*
X58680000Y40005000D03*
X58680000Y41275000D03*
X58680000Y42545000D03*
X53080000Y42545000D03*
X53080000Y41275000D03*
X53080000Y40005000D03*
X53080000Y38735000D03*
%TD*%
%TO.C,U1*%
X126720000Y38735000D03*
X126720000Y40005000D03*
X126720000Y41275000D03*
X126720000Y42545000D03*
X121120000Y42545000D03*
X121120000Y41275000D03*
X121120000Y40005000D03*
X121120000Y38735000D03*
%TD*%
%TO.C,U1*%
X58680000Y95985000D03*
X58680000Y97255000D03*
X58680000Y98525000D03*
X58680000Y99795000D03*
X53080000Y99795000D03*
X53080000Y98525000D03*
X53080000Y97255000D03*
X53080000Y95985000D03*
%TD*%
%TO.C,U1*%
X126720000Y95985000D03*
X126720000Y97255000D03*
X126720000Y98525000D03*
X126720000Y99795000D03*
X121120000Y99795000D03*
X121120000Y98525000D03*
X121120000Y97255000D03*
X121120000Y95985000D03*
%TD*%
D12*
%TO.C,D3*%
X59842500Y24892000D03*
X58267500Y24892000D03*
%TD*%
%TO.C,D3*%
X127882500Y82142000D03*
X126307500Y82142000D03*
%TD*%
%TO.C,D3*%
X59842500Y82142000D03*
X58267500Y82142000D03*
%TD*%
%TO.C,D3*%
X127882500Y24892000D03*
X126307500Y24892000D03*
%TD*%
D35*
%TO.C,D2*%
X50531000Y19647000D03*
X51181000Y19647000D03*
X51831000Y19647000D03*
X51831000Y21247000D03*
X50531000Y21247000D03*
%TD*%
%TO.C,D2*%
X50531000Y76897000D03*
X51181000Y76897000D03*
X51831000Y76897000D03*
X51831000Y78497000D03*
X50531000Y78497000D03*
%TD*%
%TO.C,D2*%
X118571000Y19647000D03*
X119221000Y19647000D03*
X119871000Y19647000D03*
X119871000Y21247000D03*
X118571000Y21247000D03*
%TD*%
%TO.C,D2*%
X118571000Y76897000D03*
X119221000Y76897000D03*
X119871000Y76897000D03*
X119871000Y78497000D03*
X118571000Y78497000D03*
%TD*%
D36*
%TO.C,TR1*%
X11068000Y28663000D03*
X11068000Y26963000D03*
X10268000Y28663000D03*
X10268000Y26963000D03*
%TD*%
%TO.C,TR1*%
X79108000Y85913000D03*
X79108000Y84213000D03*
X78308000Y85913000D03*
X78308000Y84213000D03*
%TD*%
%TO.C,TR1*%
X11068000Y85913000D03*
X11068000Y84213000D03*
X10268000Y85913000D03*
X10268000Y84213000D03*
%TD*%
%TO.C,TR1*%
X79108000Y28663000D03*
X79108000Y26963000D03*
X78308000Y28663000D03*
X78308000Y26963000D03*
%TD*%
M02*
