%TF.GenerationSoftware,KiCad,Pcbnew,8.0.7*%
%TF.CreationDate,2025-01-31T11:01:19+00:00*%
%TF.ProjectId,SparkFun_GNSS_pHAT_panelized,53706172-6b46-4756-9e5f-474e53535f70,v10*%
%TF.SameCoordinates,Original*%
%TF.FileFunction,Soldermask,Bot*%
%TF.FilePolarity,Negative*%
%FSLAX46Y46*%
G04 Gerber Fmt 4.6, Leading zero omitted, Abs format (unit mm)*
G04 Created by KiCad (PCBNEW 8.0.7) date 2025-01-31 11:01:19*
%MOMM*%
%LPD*%
G01*
G04 APERTURE LIST*
G04 Aperture macros list*
%AMRoundRect*
0 Rectangle with rounded corners*
0 $1 Rounding radius*
0 $2 $3 $4 $5 $6 $7 $8 $9 X,Y pos of 4 corners*
0 Add a 4 corners polygon primitive as box body*
4,1,4,$2,$3,$4,$5,$6,$7,$8,$9,$2,$3,0*
0 Add four circle primitives for the rounded corners*
1,1,$1+$1,$2,$3*
1,1,$1+$1,$4,$5*
1,1,$1+$1,$6,$7*
1,1,$1+$1,$8,$9*
0 Add four rect primitives between the rounded corners*
20,1,$1+$1,$2,$3,$4,$5,0*
20,1,$1+$1,$4,$5,$6,$7,0*
20,1,$1+$1,$6,$7,$8,$9,0*
20,1,$1+$1,$8,$9,$2,$3,0*%
G04 Aperture macros list end*
%ADD10C,2.950000*%
%ADD11C,0.000000*%
%ADD12C,1.200000*%
%ADD13C,2.850000*%
%ADD14C,3.200000*%
%ADD15RoundRect,0.050000X2.000000X-0.750000X2.000000X0.750000X-2.000000X0.750000X-2.000000X-0.750000X0*%
%ADD16C,1.979600*%
%ADD17C,1.120000*%
%ADD18C,1.900000*%
%ADD19C,0.750000*%
%ADD20O,1.700000X1.100000*%
%ADD21O,2.200000X1.100000*%
%ADD22RoundRect,0.675000X0.000010X0.000010X-0.000010X0.000010X-0.000010X-0.000010X0.000010X-0.000010X0*%
%ADD23C,0.600000*%
%ADD24C,3.000000*%
%ADD25RoundRect,0.050000X0.635000X-0.330200X0.635000X0.330200X-0.635000X0.330200X-0.635000X-0.330200X0*%
%ADD26RoundRect,0.050000X-0.635000X0.330200X-0.635000X-0.330200X0.635000X-0.330200X0.635000X0.330200X0*%
%ADD27RoundRect,0.050000X0.330200X0.635000X-0.330200X0.635000X-0.330200X-0.635000X0.330200X-0.635000X0*%
G04 APERTURE END LIST*
%TO.C,ST6*%
D10*
X4975000Y3500000D02*
G75*
G02*
X2025000Y3500000I-1475000J0D01*
G01*
X2025000Y3500000D02*
G75*
G02*
X4975000Y3500000I1475000J0D01*
G01*
X73015000Y3500000D02*
G75*
G02*
X70065000Y3500000I-1475000J0D01*
G01*
X70065000Y3500000D02*
G75*
G02*
X73015000Y3500000I1475000J0D01*
G01*
X4975000Y60750000D02*
G75*
G02*
X2025000Y60750000I-1475000J0D01*
G01*
X2025000Y60750000D02*
G75*
G02*
X4975000Y60750000I1475000J0D01*
G01*
X73015000Y60750000D02*
G75*
G02*
X70065000Y60750000I-1475000J0D01*
G01*
X70065000Y60750000D02*
G75*
G02*
X73015000Y60750000I1475000J0D01*
G01*
%TO.C,ST5*%
X4975000Y52500000D02*
G75*
G02*
X2025000Y52500000I-1475000J0D01*
G01*
X2025000Y52500000D02*
G75*
G02*
X4975000Y52500000I1475000J0D01*
G01*
X73015000Y52500000D02*
G75*
G02*
X70065000Y52500000I-1475000J0D01*
G01*
X70065000Y52500000D02*
G75*
G02*
X73015000Y52500000I1475000J0D01*
G01*
X73015000Y109750000D02*
G75*
G02*
X70065000Y109750000I-1475000J0D01*
G01*
X70065000Y109750000D02*
G75*
G02*
X73015000Y109750000I1475000J0D01*
G01*
X4975000Y109750000D02*
G75*
G02*
X2025000Y109750000I-1475000J0D01*
G01*
X2025000Y109750000D02*
G75*
G02*
X4975000Y109750000I1475000J0D01*
G01*
%TO.C,ST7*%
X62975000Y3500000D02*
G75*
G02*
X60025000Y3500000I-1475000J0D01*
G01*
X60025000Y3500000D02*
G75*
G02*
X62975000Y3500000I1475000J0D01*
G01*
X62975000Y60750000D02*
G75*
G02*
X60025000Y60750000I-1475000J0D01*
G01*
X60025000Y60750000D02*
G75*
G02*
X62975000Y60750000I1475000J0D01*
G01*
X131015000Y3500000D02*
G75*
G02*
X128065000Y3500000I-1475000J0D01*
G01*
X128065000Y3500000D02*
G75*
G02*
X131015000Y3500000I1475000J0D01*
G01*
X131015000Y60750000D02*
G75*
G02*
X128065000Y60750000I-1475000J0D01*
G01*
X128065000Y60750000D02*
G75*
G02*
X131015000Y60750000I1475000J0D01*
G01*
%TO.C,ST8*%
X62975000Y52500000D02*
G75*
G02*
X60025000Y52500000I-1475000J0D01*
G01*
X60025000Y52500000D02*
G75*
G02*
X62975000Y52500000I1475000J0D01*
G01*
X62975000Y109750000D02*
G75*
G02*
X60025000Y109750000I-1475000J0D01*
G01*
X60025000Y109750000D02*
G75*
G02*
X62975000Y109750000I1475000J0D01*
G01*
X131015000Y109750000D02*
G75*
G02*
X128065000Y109750000I-1475000J0D01*
G01*
X128065000Y109750000D02*
G75*
G02*
X131015000Y109750000I1475000J0D01*
G01*
X131015000Y52500000D02*
G75*
G02*
X128065000Y52500000I-1475000J0D01*
G01*
X128065000Y52500000D02*
G75*
G02*
X131015000Y52500000I1475000J0D01*
G01*
D11*
%TO.C,JP23*%
G36*
X26402500Y46736000D02*
G01*
X25921500Y46736000D01*
X25921500Y47244000D01*
X26402500Y47244000D01*
X26402500Y46736000D01*
G37*
G36*
X94442500Y103986000D02*
G01*
X93961500Y103986000D01*
X93961500Y104494000D01*
X94442500Y104494000D01*
X94442500Y103986000D01*
G37*
G36*
X26402500Y103986000D02*
G01*
X25921500Y103986000D01*
X25921500Y104494000D01*
X26402500Y104494000D01*
X26402500Y103986000D01*
G37*
G36*
X94442500Y46736000D02*
G01*
X93961500Y46736000D01*
X93961500Y47244000D01*
X94442500Y47244000D01*
X94442500Y46736000D01*
G37*
%TO.C,JP7*%
G36*
X39102500Y46736000D02*
G01*
X38621500Y46736000D01*
X38621500Y47244000D01*
X39102500Y47244000D01*
X39102500Y46736000D01*
G37*
G36*
X107142500Y103986000D02*
G01*
X106661500Y103986000D01*
X106661500Y104494000D01*
X107142500Y104494000D01*
X107142500Y103986000D01*
G37*
G36*
X107142500Y46736000D02*
G01*
X106661500Y46736000D01*
X106661500Y47244000D01*
X107142500Y47244000D01*
X107142500Y46736000D01*
G37*
G36*
X39102500Y103986000D02*
G01*
X38621500Y103986000D01*
X38621500Y104494000D01*
X39102500Y104494000D01*
X39102500Y103986000D01*
G37*
%TO.C,JP12*%
G36*
X46722500Y46736000D02*
G01*
X46241500Y46736000D01*
X46241500Y47244000D01*
X46722500Y47244000D01*
X46722500Y46736000D01*
G37*
G36*
X46722500Y103986000D02*
G01*
X46241500Y103986000D01*
X46241500Y104494000D01*
X46722500Y104494000D01*
X46722500Y103986000D01*
G37*
G36*
X114762500Y46736000D02*
G01*
X114281500Y46736000D01*
X114281500Y47244000D01*
X114762500Y47244000D01*
X114762500Y46736000D01*
G37*
G36*
X114762500Y103986000D02*
G01*
X114281500Y103986000D01*
X114281500Y104494000D01*
X114762500Y104494000D01*
X114762500Y103986000D01*
G37*
%TO.C,JP15*%
G36*
X18782500Y46736000D02*
G01*
X18301500Y46736000D01*
X18301500Y47244000D01*
X18782500Y47244000D01*
X18782500Y46736000D01*
G37*
G36*
X18782500Y103986000D02*
G01*
X18301500Y103986000D01*
X18301500Y104494000D01*
X18782500Y104494000D01*
X18782500Y103986000D01*
G37*
G36*
X86822500Y46736000D02*
G01*
X86341500Y46736000D01*
X86341500Y47244000D01*
X86822500Y47244000D01*
X86822500Y46736000D01*
G37*
G36*
X86822500Y103986000D02*
G01*
X86341500Y103986000D01*
X86341500Y104494000D01*
X86822500Y104494000D01*
X86822500Y103986000D01*
G37*
%TO.C,JP3*%
G36*
X2794000Y43701500D02*
G01*
X2286000Y43701500D01*
X2286000Y44182500D01*
X2794000Y44182500D01*
X2794000Y43701500D01*
G37*
G36*
X70834000Y100951500D02*
G01*
X70326000Y100951500D01*
X70326000Y101432500D01*
X70834000Y101432500D01*
X70834000Y100951500D01*
G37*
G36*
X2794000Y100951500D02*
G01*
X2286000Y100951500D01*
X2286000Y101432500D01*
X2794000Y101432500D01*
X2794000Y100951500D01*
G37*
G36*
X70834000Y43701500D02*
G01*
X70326000Y43701500D01*
X70326000Y44182500D01*
X70834000Y44182500D01*
X70834000Y43701500D01*
G37*
%TO.C,JP8*%
G36*
X36562500Y46736000D02*
G01*
X36081500Y46736000D01*
X36081500Y47244000D01*
X36562500Y47244000D01*
X36562500Y46736000D01*
G37*
G36*
X104602500Y103986000D02*
G01*
X104121500Y103986000D01*
X104121500Y104494000D01*
X104602500Y104494000D01*
X104602500Y103986000D01*
G37*
G36*
X36562500Y103986000D02*
G01*
X36081500Y103986000D01*
X36081500Y104494000D01*
X36562500Y104494000D01*
X36562500Y103986000D01*
G37*
G36*
X104602500Y46736000D02*
G01*
X104121500Y46736000D01*
X104121500Y47244000D01*
X104602500Y47244000D01*
X104602500Y46736000D01*
G37*
%TO.C,JP24*%
G36*
X28942500Y46736000D02*
G01*
X28461500Y46736000D01*
X28461500Y47244000D01*
X28942500Y47244000D01*
X28942500Y46736000D01*
G37*
G36*
X96982500Y103986000D02*
G01*
X96501500Y103986000D01*
X96501500Y104494000D01*
X96982500Y104494000D01*
X96982500Y103986000D01*
G37*
G36*
X96982500Y46736000D02*
G01*
X96501500Y46736000D01*
X96501500Y47244000D01*
X96982500Y47244000D01*
X96982500Y46736000D01*
G37*
G36*
X28942500Y103986000D02*
G01*
X28461500Y103986000D01*
X28461500Y104494000D01*
X28942500Y104494000D01*
X28942500Y103986000D01*
G37*
%TO.C,JP14*%
G36*
X16242500Y46736000D02*
G01*
X15761500Y46736000D01*
X15761500Y47244000D01*
X16242500Y47244000D01*
X16242500Y46736000D01*
G37*
G36*
X16242500Y103986000D02*
G01*
X15761500Y103986000D01*
X15761500Y104494000D01*
X16242500Y104494000D01*
X16242500Y103986000D01*
G37*
G36*
X84282500Y46736000D02*
G01*
X83801500Y46736000D01*
X83801500Y47244000D01*
X84282500Y47244000D01*
X84282500Y46736000D01*
G37*
G36*
X84282500Y103986000D02*
G01*
X83801500Y103986000D01*
X83801500Y104494000D01*
X84282500Y104494000D01*
X84282500Y103986000D01*
G37*
%TO.C,JP25*%
G36*
X34022500Y46736000D02*
G01*
X33541500Y46736000D01*
X33541500Y47244000D01*
X34022500Y47244000D01*
X34022500Y46736000D01*
G37*
G36*
X102062500Y46736000D02*
G01*
X101581500Y46736000D01*
X101581500Y47244000D01*
X102062500Y47244000D01*
X102062500Y46736000D01*
G37*
G36*
X34022500Y103986000D02*
G01*
X33541500Y103986000D01*
X33541500Y104494000D01*
X34022500Y104494000D01*
X34022500Y103986000D01*
G37*
G36*
X102062500Y103986000D02*
G01*
X101581500Y103986000D01*
X101581500Y104494000D01*
X102062500Y104494000D01*
X102062500Y103986000D01*
G37*
%TD*%
D12*
%TO.C,J4*%
X18000000Y41000000D03*
X34000000Y41000000D03*
%TD*%
%TO.C,J4*%
X18000000Y98250000D03*
X34000000Y98250000D03*
%TD*%
%TO.C,J4*%
X86040000Y41000000D03*
X102040000Y41000000D03*
%TD*%
%TO.C,J4*%
X86040000Y98250000D03*
X102040000Y98250000D03*
%TD*%
%TO.C,J2*%
X18000000Y5000000D03*
X34000000Y5000000D03*
%TD*%
%TO.C,J2*%
X86040000Y62250000D03*
X102040000Y62250000D03*
%TD*%
%TO.C,J2*%
X18000000Y62250000D03*
X34000000Y62250000D03*
%TD*%
%TO.C,J2*%
X86040000Y5000000D03*
X102040000Y5000000D03*
%TD*%
D13*
%TO.C,ST6*%
X3500000Y3500000D03*
%TD*%
%TO.C,ST6*%
X71540000Y3500000D03*
%TD*%
%TO.C,ST6*%
X3500000Y60750000D03*
%TD*%
%TO.C,ST6*%
X71540000Y60750000D03*
%TD*%
D14*
%TO.C,ST2*%
X40500000Y42500000D03*
%TD*%
%TO.C,ST2*%
X40500000Y99750000D03*
%TD*%
%TO.C,ST2*%
X108540000Y42500000D03*
%TD*%
%TO.C,ST2*%
X108540000Y99750000D03*
%TD*%
D15*
%TO.C,J7*%
X2254000Y9460000D03*
X2254000Y14540000D03*
%TD*%
%TO.C,J7*%
X2254000Y66710000D03*
X2254000Y71790000D03*
%TD*%
%TO.C,J7*%
X70294000Y66710000D03*
X70294000Y71790000D03*
%TD*%
%TO.C,J7*%
X70294000Y9460000D03*
X70294000Y14540000D03*
%TD*%
D16*
%TO.C,J9*%
X63500000Y46990000D03*
X60960000Y46990000D03*
X58420000Y46990000D03*
X55880000Y46990000D03*
X53340000Y46990000D03*
%TD*%
%TO.C,J9*%
X131540000Y104240000D03*
X129000000Y104240000D03*
X126460000Y104240000D03*
X123920000Y104240000D03*
X121380000Y104240000D03*
%TD*%
%TO.C,J9*%
X63500000Y104240000D03*
X60960000Y104240000D03*
X58420000Y104240000D03*
X55880000Y104240000D03*
X53340000Y104240000D03*
%TD*%
%TO.C,J9*%
X131540000Y46990000D03*
X129000000Y46990000D03*
X126460000Y46990000D03*
X123920000Y46990000D03*
X121380000Y46990000D03*
%TD*%
D13*
%TO.C,ST5*%
X3500000Y52500000D03*
%TD*%
%TO.C,ST5*%
X71540000Y52500000D03*
%TD*%
%TO.C,ST5*%
X71540000Y109750000D03*
%TD*%
%TO.C,ST5*%
X3500000Y109750000D03*
%TD*%
D17*
%TO.C,J1*%
X8370000Y51230000D03*
X10910000Y51230000D03*
X13450000Y51230000D03*
X15990000Y51230000D03*
X18530000Y51230000D03*
X21070000Y51230000D03*
X23610000Y51230000D03*
X26150000Y51230000D03*
X28690000Y51230000D03*
X31230000Y51230000D03*
X33770000Y51230000D03*
X36310000Y51230000D03*
X38850000Y51230000D03*
X41390000Y51230000D03*
X43930000Y51230000D03*
X46470000Y51230000D03*
X49010000Y51230000D03*
X51550000Y51230000D03*
X54090000Y51230000D03*
X56630000Y51230000D03*
D18*
X9640000Y52500000D03*
X55360000Y52500000D03*
D17*
X8370000Y53770000D03*
X10910000Y53770000D03*
X13450000Y53770000D03*
X15990000Y53770000D03*
X18530000Y53770000D03*
X21070000Y53770000D03*
X23610000Y53770000D03*
X26150000Y53770000D03*
X28690000Y53770000D03*
X31230000Y53770000D03*
X33770000Y53770000D03*
X36310000Y53770000D03*
X38850000Y53770000D03*
X41390000Y53770000D03*
X43930000Y53770000D03*
X46470000Y53770000D03*
X49010000Y53770000D03*
X51550000Y53770000D03*
X54090000Y53770000D03*
X56630000Y53770000D03*
%TD*%
%TO.C,J1*%
X76410000Y51230000D03*
X78950000Y51230000D03*
X81490000Y51230000D03*
X84030000Y51230000D03*
X86570000Y51230000D03*
X89110000Y51230000D03*
X91650000Y51230000D03*
X94190000Y51230000D03*
X96730000Y51230000D03*
X99270000Y51230000D03*
X101810000Y51230000D03*
X104350000Y51230000D03*
X106890000Y51230000D03*
X109430000Y51230000D03*
X111970000Y51230000D03*
X114510000Y51230000D03*
X117050000Y51230000D03*
X119590000Y51230000D03*
X122130000Y51230000D03*
X124670000Y51230000D03*
D18*
X77680000Y52500000D03*
X123400000Y52500000D03*
D17*
X76410000Y53770000D03*
X78950000Y53770000D03*
X81490000Y53770000D03*
X84030000Y53770000D03*
X86570000Y53770000D03*
X89110000Y53770000D03*
X91650000Y53770000D03*
X94190000Y53770000D03*
X96730000Y53770000D03*
X99270000Y53770000D03*
X101810000Y53770000D03*
X104350000Y53770000D03*
X106890000Y53770000D03*
X109430000Y53770000D03*
X111970000Y53770000D03*
X114510000Y53770000D03*
X117050000Y53770000D03*
X119590000Y53770000D03*
X122130000Y53770000D03*
X124670000Y53770000D03*
%TD*%
%TO.C,J1*%
X8370000Y108480000D03*
X10910000Y108480000D03*
X13450000Y108480000D03*
X15990000Y108480000D03*
X18530000Y108480000D03*
X21070000Y108480000D03*
X23610000Y108480000D03*
X26150000Y108480000D03*
X28690000Y108480000D03*
X31230000Y108480000D03*
X33770000Y108480000D03*
X36310000Y108480000D03*
X38850000Y108480000D03*
X41390000Y108480000D03*
X43930000Y108480000D03*
X46470000Y108480000D03*
X49010000Y108480000D03*
X51550000Y108480000D03*
X54090000Y108480000D03*
X56630000Y108480000D03*
D18*
X9640000Y109750000D03*
X55360000Y109750000D03*
D17*
X8370000Y111020000D03*
X10910000Y111020000D03*
X13450000Y111020000D03*
X15990000Y111020000D03*
X18530000Y111020000D03*
X21070000Y111020000D03*
X23610000Y111020000D03*
X26150000Y111020000D03*
X28690000Y111020000D03*
X31230000Y111020000D03*
X33770000Y111020000D03*
X36310000Y111020000D03*
X38850000Y111020000D03*
X41390000Y111020000D03*
X43930000Y111020000D03*
X46470000Y111020000D03*
X49010000Y111020000D03*
X51550000Y111020000D03*
X54090000Y111020000D03*
X56630000Y111020000D03*
%TD*%
%TO.C,J1*%
X76410000Y108480000D03*
X78950000Y108480000D03*
X81490000Y108480000D03*
X84030000Y108480000D03*
X86570000Y108480000D03*
X89110000Y108480000D03*
X91650000Y108480000D03*
X94190000Y108480000D03*
X96730000Y108480000D03*
X99270000Y108480000D03*
X101810000Y108480000D03*
X104350000Y108480000D03*
X106890000Y108480000D03*
X109430000Y108480000D03*
X111970000Y108480000D03*
X114510000Y108480000D03*
X117050000Y108480000D03*
X119590000Y108480000D03*
X122130000Y108480000D03*
X124670000Y108480000D03*
D18*
X77680000Y109750000D03*
X123400000Y109750000D03*
D17*
X76410000Y111020000D03*
X78950000Y111020000D03*
X81490000Y111020000D03*
X84030000Y111020000D03*
X86570000Y111020000D03*
X89110000Y111020000D03*
X91650000Y111020000D03*
X94190000Y111020000D03*
X96730000Y111020000D03*
X99270000Y111020000D03*
X101810000Y111020000D03*
X104350000Y111020000D03*
X106890000Y111020000D03*
X109430000Y111020000D03*
X111970000Y111020000D03*
X114510000Y111020000D03*
X117050000Y111020000D03*
X119590000Y111020000D03*
X122130000Y111020000D03*
X124670000Y111020000D03*
%TD*%
D13*
%TO.C,ST7*%
X61500000Y3500000D03*
%TD*%
%TO.C,ST7*%
X61500000Y60750000D03*
%TD*%
%TO.C,ST7*%
X129540000Y3500000D03*
%TD*%
%TO.C,ST7*%
X129540000Y60750000D03*
%TD*%
D14*
%TO.C,ST4*%
X11500000Y3500000D03*
%TD*%
%TO.C,ST4*%
X11500000Y60750000D03*
%TD*%
%TO.C,ST4*%
X79540000Y3500000D03*
%TD*%
%TO.C,ST4*%
X79540000Y60750000D03*
%TD*%
%TO.C,ST3*%
X40500000Y3500000D03*
%TD*%
%TO.C,ST3*%
X40500000Y60750000D03*
%TD*%
%TO.C,ST3*%
X108540000Y60750000D03*
%TD*%
%TO.C,ST3*%
X108540000Y3500000D03*
%TD*%
D19*
%TO.C,J6*%
X5155000Y46890000D03*
X5155000Y41110000D03*
D20*
X1505000Y48318000D03*
D21*
X5685000Y48318000D03*
X5685000Y39682000D03*
D20*
X1505000Y39682000D03*
%TD*%
D19*
%TO.C,J6*%
X5155000Y104140000D03*
X5155000Y98360000D03*
D20*
X1505000Y105568000D03*
D21*
X5685000Y105568000D03*
X5685000Y96932000D03*
D20*
X1505000Y96932000D03*
%TD*%
D19*
%TO.C,J6*%
X73195000Y46890000D03*
X73195000Y41110000D03*
D20*
X69545000Y48318000D03*
D21*
X73725000Y48318000D03*
X73725000Y39682000D03*
D20*
X69545000Y39682000D03*
%TD*%
D19*
%TO.C,J6*%
X73195000Y104140000D03*
X73195000Y98360000D03*
D20*
X69545000Y105568000D03*
D21*
X73725000Y105568000D03*
X73725000Y96932000D03*
D20*
X69545000Y96932000D03*
%TD*%
D13*
%TO.C,ST8*%
X61500000Y52500000D03*
%TD*%
%TO.C,ST8*%
X61500000Y109750000D03*
%TD*%
%TO.C,ST8*%
X129540000Y109750000D03*
%TD*%
%TO.C,ST8*%
X129540000Y52500000D03*
%TD*%
D14*
%TO.C,ST1*%
X11500000Y42500000D03*
%TD*%
%TO.C,ST1*%
X11500000Y99750000D03*
%TD*%
%TO.C,ST1*%
X79540000Y42500000D03*
%TD*%
%TO.C,ST1*%
X79540000Y99750000D03*
%TD*%
D22*
%TO.C,TP24*%
X31000000Y2875000D03*
%TD*%
%TO.C,TP24*%
X99040000Y60125000D03*
%TD*%
%TO.C,TP24*%
X31000000Y60125000D03*
%TD*%
%TO.C,TP24*%
X99040000Y2875000D03*
%TD*%
%TO.C,TP25*%
X33000000Y2875000D03*
%TD*%
%TO.C,TP25*%
X101040000Y2875000D03*
%TD*%
%TO.C,TP25*%
X33000000Y60125000D03*
%TD*%
%TO.C,TP25*%
X101040000Y60125000D03*
%TD*%
D23*
%TO.C,FID3*%
X58750000Y55250000D03*
%TD*%
%TO.C,FID3*%
X126790000Y112500000D03*
%TD*%
%TO.C,FID3*%
X126790000Y55250000D03*
%TD*%
%TO.C,FID3*%
X58750000Y112500000D03*
%TD*%
D22*
%TO.C,TP14*%
X49022000Y49657000D03*
%TD*%
%TO.C,TP14*%
X117062000Y49657000D03*
%TD*%
%TO.C,TP14*%
X49022000Y106907000D03*
%TD*%
%TO.C,TP14*%
X117062000Y106907000D03*
%TD*%
%TO.C,TP31*%
X13462000Y55372000D03*
%TD*%
%TO.C,TP31*%
X13462000Y112622000D03*
%TD*%
%TO.C,TP31*%
X81502000Y55372000D03*
%TD*%
%TO.C,TP31*%
X81502000Y112622000D03*
%TD*%
%TO.C,TP26*%
X35000000Y2875000D03*
%TD*%
%TO.C,TP26*%
X103040000Y2875000D03*
%TD*%
%TO.C,TP26*%
X35000000Y60125000D03*
%TD*%
%TO.C,TP26*%
X103040000Y60125000D03*
%TD*%
%TO.C,TP9*%
X36322000Y55372000D03*
%TD*%
%TO.C,TP9*%
X104362000Y112622000D03*
%TD*%
%TO.C,TP9*%
X104362000Y55372000D03*
%TD*%
%TO.C,TP9*%
X36322000Y112622000D03*
%TD*%
%TO.C,TP12*%
X36322000Y49657000D03*
%TD*%
%TO.C,TP12*%
X36322000Y106907000D03*
%TD*%
%TO.C,TP12*%
X104362000Y49657000D03*
%TD*%
%TO.C,TP12*%
X104362000Y106907000D03*
%TD*%
%TO.C,TP30*%
X25000000Y7125000D03*
%TD*%
%TO.C,TP30*%
X25000000Y64375000D03*
%TD*%
%TO.C,TP30*%
X93040000Y64375000D03*
%TD*%
%TO.C,TP30*%
X93040000Y7125000D03*
%TD*%
D24*
%TO.C,*%
X131040000Y116087500D03*
%TD*%
D25*
%TO.C,JP23*%
X26162000Y46469300D03*
X26162000Y47510700D03*
%TD*%
%TO.C,JP23*%
X94202000Y103719300D03*
X94202000Y104760700D03*
%TD*%
%TO.C,JP23*%
X26162000Y103719300D03*
X26162000Y104760700D03*
%TD*%
%TO.C,JP23*%
X94202000Y46469300D03*
X94202000Y47510700D03*
%TD*%
D22*
%TO.C,TP10*%
X33782000Y49657000D03*
%TD*%
%TO.C,TP10*%
X33782000Y106907000D03*
%TD*%
%TO.C,TP10*%
X101822000Y49657000D03*
%TD*%
%TO.C,TP10*%
X101822000Y106907000D03*
%TD*%
%TO.C,TP8*%
X38862000Y55372000D03*
%TD*%
%TO.C,TP8*%
X106902000Y55372000D03*
%TD*%
%TO.C,TP8*%
X38862000Y112622000D03*
%TD*%
%TO.C,TP8*%
X106902000Y112622000D03*
%TD*%
D23*
%TO.C,FID2*%
X6250000Y750000D03*
%TD*%
%TO.C,FID2*%
X74290000Y58000000D03*
%TD*%
%TO.C,FID2*%
X74290000Y750000D03*
%TD*%
%TO.C,FID2*%
X6250000Y58000000D03*
%TD*%
D26*
%TO.C,JP7*%
X38862000Y47510700D03*
X38862000Y46469300D03*
%TD*%
%TO.C,JP7*%
X106902000Y104760700D03*
X106902000Y103719300D03*
%TD*%
%TO.C,JP7*%
X106902000Y47510700D03*
X106902000Y46469300D03*
%TD*%
%TO.C,JP7*%
X38862000Y104760700D03*
X38862000Y103719300D03*
%TD*%
D22*
%TO.C,TP2*%
X41402000Y55372000D03*
%TD*%
%TO.C,TP2*%
X41402000Y112622000D03*
%TD*%
%TO.C,TP2*%
X109442000Y112622000D03*
%TD*%
%TO.C,TP2*%
X109442000Y55372000D03*
%TD*%
D26*
%TO.C,JP12*%
X46482000Y47510700D03*
X46482000Y46469300D03*
%TD*%
%TO.C,JP12*%
X46482000Y104760700D03*
X46482000Y103719300D03*
%TD*%
%TO.C,JP12*%
X114522000Y47510700D03*
X114522000Y46469300D03*
%TD*%
%TO.C,JP12*%
X114522000Y104760700D03*
X114522000Y103719300D03*
%TD*%
D22*
%TO.C,TP1*%
X41402000Y49657000D03*
%TD*%
%TO.C,TP1*%
X109442000Y106907000D03*
%TD*%
%TO.C,TP1*%
X41402000Y106907000D03*
%TD*%
%TO.C,TP1*%
X109442000Y49657000D03*
%TD*%
%TO.C,TP18*%
X26162000Y55372000D03*
%TD*%
%TO.C,TP18*%
X26162000Y112622000D03*
%TD*%
%TO.C,TP18*%
X94202000Y112622000D03*
%TD*%
%TO.C,TP18*%
X94202000Y55372000D03*
%TD*%
%TO.C,TP29*%
X27000000Y7125000D03*
%TD*%
%TO.C,TP29*%
X95040000Y64375000D03*
%TD*%
%TO.C,TP29*%
X27000000Y64375000D03*
%TD*%
%TO.C,TP29*%
X95040000Y7125000D03*
%TD*%
%TO.C,TP15*%
X16002000Y55372000D03*
%TD*%
%TO.C,TP15*%
X84042000Y55372000D03*
%TD*%
%TO.C,TP15*%
X84042000Y112622000D03*
%TD*%
%TO.C,TP15*%
X16002000Y112622000D03*
%TD*%
%TO.C,TP20*%
X33782000Y55372000D03*
%TD*%
%TO.C,TP20*%
X101822000Y55372000D03*
%TD*%
%TO.C,TP20*%
X33782000Y112622000D03*
%TD*%
%TO.C,TP20*%
X101822000Y112622000D03*
%TD*%
%TO.C,TP5*%
X16002000Y49657000D03*
%TD*%
%TO.C,TP5*%
X84042000Y49657000D03*
%TD*%
%TO.C,TP5*%
X16002000Y106907000D03*
%TD*%
%TO.C,TP5*%
X84042000Y106907000D03*
%TD*%
D25*
%TO.C,JP15*%
X18542000Y46469300D03*
X18542000Y47510700D03*
%TD*%
%TO.C,JP15*%
X18542000Y103719300D03*
X18542000Y104760700D03*
%TD*%
%TO.C,JP15*%
X86582000Y46469300D03*
X86582000Y47510700D03*
%TD*%
%TO.C,JP15*%
X86582000Y103719300D03*
X86582000Y104760700D03*
%TD*%
D27*
%TO.C,JP3*%
X3060700Y43942000D03*
X2019300Y43942000D03*
%TD*%
%TO.C,JP3*%
X71100700Y101192000D03*
X70059300Y101192000D03*
%TD*%
%TO.C,JP3*%
X3060700Y101192000D03*
X2019300Y101192000D03*
%TD*%
%TO.C,JP3*%
X71100700Y43942000D03*
X70059300Y43942000D03*
%TD*%
D22*
%TO.C,TP28*%
X29000000Y7125000D03*
%TD*%
%TO.C,TP28*%
X29000000Y64375000D03*
%TD*%
%TO.C,TP28*%
X97040000Y7125000D03*
%TD*%
%TO.C,TP28*%
X97040000Y64375000D03*
%TD*%
%TO.C,TP23*%
X8382000Y49657000D03*
%TD*%
%TO.C,TP23*%
X76422000Y106907000D03*
%TD*%
%TO.C,TP23*%
X8382000Y106907000D03*
%TD*%
%TO.C,TP23*%
X76422000Y49657000D03*
%TD*%
%TO.C,TP22*%
X8382000Y55372000D03*
%TD*%
%TO.C,TP22*%
X76422000Y112622000D03*
%TD*%
%TO.C,TP22*%
X76422000Y55372000D03*
%TD*%
%TO.C,TP22*%
X8382000Y112622000D03*
%TD*%
D26*
%TO.C,JP8*%
X36322000Y47510700D03*
X36322000Y46469300D03*
%TD*%
%TO.C,JP8*%
X104362000Y104760700D03*
X104362000Y103719300D03*
%TD*%
%TO.C,JP8*%
X36322000Y104760700D03*
X36322000Y103719300D03*
%TD*%
%TO.C,JP8*%
X104362000Y47510700D03*
X104362000Y46469300D03*
%TD*%
D22*
%TO.C,TP19*%
X28702000Y55372000D03*
%TD*%
%TO.C,TP19*%
X28702000Y112622000D03*
%TD*%
%TO.C,TP19*%
X96742000Y55372000D03*
%TD*%
%TO.C,TP19*%
X96742000Y112622000D03*
%TD*%
%TO.C,TP6*%
X43942000Y49657000D03*
%TD*%
%TO.C,TP6*%
X43942000Y106907000D03*
%TD*%
%TO.C,TP6*%
X111982000Y106907000D03*
%TD*%
%TO.C,TP6*%
X111982000Y49657000D03*
%TD*%
%TO.C,TP27*%
X31000000Y7125000D03*
%TD*%
%TO.C,TP27*%
X31000000Y64375000D03*
%TD*%
%TO.C,TP27*%
X99040000Y64375000D03*
%TD*%
%TO.C,TP27*%
X99040000Y7125000D03*
%TD*%
D25*
%TO.C,JP24*%
X28702000Y46469300D03*
X28702000Y47510700D03*
%TD*%
%TO.C,JP24*%
X96742000Y103719300D03*
X96742000Y104760700D03*
%TD*%
%TO.C,JP24*%
X96742000Y46469300D03*
X96742000Y47510700D03*
%TD*%
%TO.C,JP24*%
X28702000Y103719300D03*
X28702000Y104760700D03*
%TD*%
%TO.C,JP14*%
X16002000Y46469300D03*
X16002000Y47510700D03*
%TD*%
%TO.C,JP14*%
X16002000Y103719300D03*
X16002000Y104760700D03*
%TD*%
%TO.C,JP14*%
X84042000Y46469300D03*
X84042000Y47510700D03*
%TD*%
%TO.C,JP14*%
X84042000Y103719300D03*
X84042000Y104760700D03*
%TD*%
D22*
%TO.C,TP7*%
X46482000Y49657000D03*
%TD*%
%TO.C,TP7*%
X46482000Y106907000D03*
%TD*%
%TO.C,TP7*%
X114522000Y106907000D03*
%TD*%
%TO.C,TP7*%
X114522000Y49657000D03*
%TD*%
%TO.C,TP13*%
X46482000Y55372000D03*
%TD*%
%TO.C,TP13*%
X114522000Y112622000D03*
%TD*%
%TO.C,TP13*%
X114522000Y55372000D03*
%TD*%
%TO.C,TP13*%
X46482000Y112622000D03*
%TD*%
D24*
%TO.C,*%
X-540000Y-2087500D03*
%TD*%
D22*
%TO.C,TP21*%
X21000000Y2875000D03*
%TD*%
%TO.C,TP21*%
X21000000Y60125000D03*
%TD*%
%TO.C,TP21*%
X89040000Y2875000D03*
%TD*%
%TO.C,TP21*%
X89040000Y60125000D03*
%TD*%
D25*
%TO.C,JP25*%
X33782000Y46469300D03*
X33782000Y47510700D03*
%TD*%
%TO.C,JP25*%
X101822000Y46469300D03*
X101822000Y47510700D03*
%TD*%
%TO.C,JP25*%
X33782000Y103719300D03*
X33782000Y104760700D03*
%TD*%
%TO.C,JP25*%
X101822000Y103719300D03*
X101822000Y104760700D03*
%TD*%
D22*
%TO.C,TP16*%
X18542000Y55372000D03*
%TD*%
%TO.C,TP16*%
X18542000Y112622000D03*
%TD*%
%TO.C,TP16*%
X86582000Y55372000D03*
%TD*%
%TO.C,TP16*%
X86582000Y112622000D03*
%TD*%
D24*
%TO.C,*%
X-540000Y116087500D03*
%TD*%
D22*
%TO.C,TP17*%
X26162000Y49657000D03*
%TD*%
%TO.C,TP17*%
X26162000Y106907000D03*
%TD*%
%TO.C,TP17*%
X94202000Y49657000D03*
%TD*%
%TO.C,TP17*%
X94202000Y106907000D03*
%TD*%
%TO.C,TP4*%
X13462000Y49657000D03*
%TD*%
%TO.C,TP4*%
X13462000Y106907000D03*
%TD*%
%TO.C,TP4*%
X81502000Y106907000D03*
%TD*%
%TO.C,TP4*%
X81502000Y49657000D03*
%TD*%
%TO.C,TP3*%
X10922000Y49657000D03*
%TD*%
%TO.C,TP3*%
X10922000Y106907000D03*
%TD*%
%TO.C,TP3*%
X78962000Y49657000D03*
%TD*%
%TO.C,TP3*%
X78962000Y106907000D03*
%TD*%
%TO.C,TP11*%
X31242000Y49657000D03*
%TD*%
%TO.C,TP11*%
X31242000Y106907000D03*
%TD*%
%TO.C,TP11*%
X99282000Y106907000D03*
%TD*%
%TO.C,TP11*%
X99282000Y49657000D03*
%TD*%
M02*
